<svg width="129" height="36" viewBox="0 0 129 36" fill="none" xmlns="http://www.w3.org/2000/svg">
<path d="M88.9803 0L82.1147 11.8856L76.6762 2.46108C76.0449 1.36713 76.8344 0 78.0974 0H88.9803Z" fill="#868686"/>
<path d="M102.679 23.7251L96.2949 34.8724C96.0995 35.2135 95.608 35.2147 95.411 34.8745L88.9545 23.7251L95.8201 11.8395L102.679 23.7251Z" fill="#868686"/>
<path d="M40.9435 35.6568H30.055C28.7917 35.6568 28.0022 34.289 28.6341 33.1951L34.0778 23.7712L40.9435 35.6568Z" fill="#868686"/>
<path d="M54.6586 11.8856L47.7999 23.7711L40.9412 11.8856L47.3582 0.765484C47.5544 0.425355 48.0453 0.425354 48.2416 0.765483L54.6586 11.8856Z" fill="#868686"/>
<path d="M99.8637 0C101.127 0 101.916 1.36755 101.285 2.4615L82.5898 34.8364C82.2967 35.344 81.755 35.6567 81.1688 35.6567H69.3391C68.7529 35.6567 68.2112 35.344 67.9181 34.8364L48.2435 0.765034C48.0472 0.425034 48.2926 0 48.6852 0H60.579C61.1651 0 61.7067 0.312621 61.9999 0.820148L75.2574 23.7711L88.9818 0H99.8637Z" fill="#EFEFEF"/>
<path d="M127.318 0C128.581 0 129.37 1.36755 128.739 2.4615L110.044 34.8364C109.751 35.344 109.209 35.6567 108.623 35.6567H96.7289C96.3363 35.6567 96.0909 35.2318 96.2872 34.8918L115.955 0.820568C116.248 0.312805 116.79 0 117.376 0H127.318Z" fill="#EFEFEF"/>
<path d="M40.9419 35.6637V35.6567L27.2106 11.8856L13.9599 34.8363C13.6668 35.344 13.1251 35.6567 12.5388 35.6567H2.60432C1.34108 35.6567 0.551586 34.2892 1.18329 33.1952L19.8782 0.820355C20.1713 0.312711 20.713 0 21.2992 0H33.1289C33.7151 0 34.2568 0.312758 34.5499 0.820462L53.2453 33.2024C53.8768 34.2963 53.0873 35.6637 51.8242 35.6637H40.9419Z" fill="#EFEFEF"/>
</svg>
