<svg viewBox="0 0 128 36" fill="none" xmlns="http://www.w3.org/2000/svg">
<path d="M87.578 0L80.8386 11.667L74.1061 0H87.578Z" fill="#868686"/>
<path d="M101.049 23.3339L94.3166 35.0009L87.5772 23.3339L94.3166 11.667L101.049 23.3339Z" fill="#868686"/>
<path d="M40.4224 35.0009H26.9436L33.683 23.3339L40.4224 35.0009Z" fill="#868686"/>
<path d="M53.8879 11.667L47.1553 23.3339L40.4228 11.667L47.1553 0L53.8879 11.667Z" fill="#868686"/>
<path d="M101.05 0L80.8389 35.0009H67.367L47.1553 0H60.6276L74.1064 23.3339L87.578 0H101.05Z" fill="#A9A9A9"/>
<path d="M128 0L107.789 35.0009H94.3166L114.521 0H128Z" fill="#A9A9A9"/>
<path d="M40.4226 35.0077L40.4224 35.0009L26.9438 11.667L13.4719 35.0009H0L20.2113 0H33.6832L47.1553 23.3339L53.8945 35.0077H40.4226Z" fill="#A9A9A9"/>
</svg>
