<svg viewBox="0 0 29.2 29.2" xmlns="http://www.w3.org/2000/svg">
    <path d="M21.56,0H7.64A7.64,7.64,0,0,0,0,7.64V21.56A7.64,7.64,0,0,0,7.64,29.2H21.56a7.64,7.64,0,0,0,7.64-7.64V7.64A7.64,7.64,0,0,0,21.56,0Zm5,21.11a5.41,5.41,0,0,1-5.41,5.41h-13a5.41,5.41,0,0,1-5.41-5.41v-13A5.41,5.41,0,0,1,8.09,2.68h13a5.41,5.41,0,0,1,5.41,5.41Z" fill="var(--accent-color)"/>
    <path d="M14.6,7a7.56,7.56,0,1,0,7.56,7.56A7.57,7.57,0,0,0,14.6,7Zm0,12.44a4.88,4.88,0,1,1,4.88-4.88A4.89,4.89,0,0,1,14.6,19.48Z" fill="var(--accent-color)"/>
    <circle cx="22.39" cy="6.82" r="1.82" fill="var(--accent-color)"/>
</svg>